<?xml version="1.0" standalone="no"?>
<!DOCTYPE svg PUBLIC "-//W3C//DTD SVG 20010904//EN"
 "http://www.w3.org/TR/2001/REC-SVG-20010904/DTD/svg10.dtd">
<svg version="1.0" xmlns="http://www.w3.org/2000/svg"
 width="1652.000000pt" height="1652.000000pt" viewBox="0 0 1652.000000 1652.000000"
 preserveAspectRatio="xMidYMid meet">

<g transform="translate(0.000000,1652.000000) scale(0.100000,-0.100000)"
fill="#000000" stroke="none">
<path d="M6550 10874 c-404 -75 -1074 -391 -1782 -842 -185 -117 -187 -120
-143 -184 102 -151 484 -278 834 -278 88 0 373 24 411 35 60 17 441 75 474 73
l41 -4 -50 -23 c-27 -12 -126 -49 -219 -82 -93 -33 -171 -61 -173 -63 -2 -2
13 -14 33 -27 21 -13 85 -61 143 -108 59 -46 129 -95 158 -108 l51 -24 139 20
c137 20 258 35 363 46 53 6 113 -5 94 -17 -5 -4 -76 -31 -158 -62 -152 -57
-170 -65 -149 -73 7 -3 53 -24 103 -49 101 -49 189 -105 267 -171 l52 -44 185
21 c102 11 200 20 218 19 32 -1 32 -1 -22 -27 -30 -15 -75 -35 -99 -44 -25
-10 -42 -20 -39 -24 11 -11 136 -24 320 -34 141 -7 228 -6 355 4 108 9 187 11
222 5 30 -5 56 -7 58 -5 13 13 -96 254 -160 353 l-45 70 -93 6 c-157 10 -288
45 -397 105 -74 40 -191 166 -229 244 -77 158 -99 326 -82 608 6 102 9 228 6
280 -12 206 -97 331 -265 392 -77 28 -299 34 -422 12z"/>
<path d="M9620 10872 c-84 -22 -147 -60 -201 -120 -91 -102 -119 -243 -99
-492 17 -202 9 -419 -19 -520 -80 -296 -267 -453 -596 -500 -38 -5 -93 -10
-122 -10 -47 0 -54 -3 -82 -37 -56 -68 -196 -372 -179 -388 3 -3 27 -1 54 4
34 7 104 5 219 -4 127 -10 217 -11 356 -5 173 9 316 23 325 33 3 2 -35 21 -83
42 -150 64 -140 66 141 35 l178 -20 63 50 c90 72 222 152 304 186 39 16 71 32
71 35 0 4 -60 28 -132 54 -73 26 -146 55 -163 63 -29 15 -29 15 -7 23 27 10
153 -2 406 -37 l179 -25 51 25 c28 14 98 64 154 110 57 46 119 92 138 102 55
30 67 23 -192 113 -77 27 -158 58 -180 69 l-39 21 50 0 c28 1 151 -17 275 -39
422 -75 658 -86 900 -45 196 34 410 123 499 208 36 35 71 90 71 112 0 9 -235
160 -415 267 -653 389 -1195 632 -1544 692 -123 21 -296 20 -381 -2z"/>
<path d="M8200 10387 c-109 -24 -199 -99 -248 -206 -22 -47 -27 -70 -26 -141
0 -72 4 -94 28 -147 51 -111 165 -194 286 -209 104 -12 241 41 306 118 55 67
77 127 82 225 4 82 2 97 -21 147 -34 74 -71 121 -124 157 -81 56 -186 77 -283
56z"/>
<path d="M7630 8624 c-233 -25 -401 -81 -558 -184 -215 -142 -322 -350 -324
-630 -1 -171 34 -303 108 -407 51 -73 180 -198 259 -252 246 -170 510 -236
1045 -261 517 -24 717 -75 861 -221 77 -78 108 -165 100 -285 -5 -92 -219
-240 -409 -283 -22 -5 -31 -10 -22 -14 8 -3 44 -15 80 -27 89 -31 224 -102
288 -150 29 -22 56 -40 61 -40 24 0 165 107 223 169 107 113 158 242 158 401
0 204 -87 403 -233 536 -170 154 -437 259 -752 297 l-110 13 4 339 c3 318 2
346 -18 428 -52 218 -115 275 -173 157 -61 -122 -68 -178 -68 -562 l0 -348
-55 0 c-31 0 -99 5 -153 11 -275 30 -517 116 -643 228 -113 101 -139 175 -119
335 20 152 42 206 109 273 31 32 82 71 112 88 69 38 142 38 248 1 93 -32 194
-35 305 -6 132 33 216 92 216 150 0 30 -117 145 -195 192 -71 43 -143 68 -188
67 -18 -1 -88 -7 -157 -15z"/>
<path d="M8685 8622 c-28 -10 -73 -30 -100 -46 -50 -29 -205 -175 -205 -193 0
-25 50 -81 95 -105 129 -70 296 -86 431 -42 153 50 231 33 347 -75 49 -46 71
-76 86 -115 27 -73 44 -203 39 -292 -4 -64 -10 -81 -41 -128 -80 -121 -246
-214 -492 -277 -60 -15 -102 -28 -92 -28 42 -2 343 -133 479 -209 88 -49 75
-51 197 31 101 68 212 176 271 264 67 99 100 206 107 343 20 390 -164 659
-549 803 -78 30 -249 63 -387 77 -130 13 -126 13 -186 -8z"/>
<path d="M7238 6923 c-115 -123 -180 -295 -181 -483 -1 -170 52 -300 167 -416
132 -131 310 -220 546 -272 153 -34 240 -43 515 -52 274 -8 332 -18 438 -72
101 -51 167 -147 189 -276 14 -85 3 -135 -43 -187 -33 -37 -149 -100 -205
-111 -43 -8 -43 -19 -1 -33 17 -6 93 -45 167 -87 l135 -75 31 16 c72 38 166
150 206 246 20 48 23 70 22 199 0 136 -2 150 -30 227 -110 296 -349 455 -746
498 l-58 6 0 292 0 292 -115 0 -115 0 0 -289 0 -289 -82 6 c-281 20 -560 144
-630 280 -17 34 -20 53 -15 108 13 156 107 262 307 347 l45 19 -55 8 c-93 13
-276 63 -365 100 -47 19 -87 35 -88 35 -2 0 -19 -17 -39 -37z"/>
<path d="M7445 5715 c-72 -109 -110 -221 -121 -360 -17 -218 92 -409 291 -511
166 -86 263 -105 580 -114 276 -7 330 -18 422 -82 113 -77 175 -252 129 -361
-37 -90 -138 -175 -259 -219 -40 -15 -55 -24 -42 -26 45 -7 154 -47 218 -79
l68 -34 46 33 c104 71 189 188 219 302 18 68 18 188 -1 261 -58 227 -234 397
-471 454 -43 11 -96 22 -117 26 l-39 6 7 230 8 229 -107 0 -106 0 0 -231 0
-231 -37 6 c-21 3 -65 8 -98 11 -175 18 -334 95 -381 186 -19 37 -18 132 2
200 28 97 86 169 172 213 19 10 32 19 30 21 -1 1 -47 15 -100 29 -54 15 -135
42 -180 61 -45 19 -85 35 -89 35 -4 0 -24 -25 -44 -55z"/>
<path d="M7640 4710 c-51 -71 -100 -233 -100 -327 0 -55 26 -156 54 -211 106
-209 338 -337 658 -363 268 -22 372 -101 371 -281 -1 -115 -64 -198 -198 -266
l-60 -30 35 -15 c19 -8 61 -26 92 -41 l57 -25 60 40 c73 49 121 105 158 185
25 54 27 69 28 184 0 118 -2 128 -29 185 -59 120 -185 214 -335 249 -35 8 -66
18 -69 21 -4 4 -5 119 -3 256 l3 249 -90 0 -91 0 6 -240 c7 -275 14 -257 -88
-221 -132 45 -226 113 -277 200 -56 95 -27 242 67 344 47 50 49 57 20 57 -11
0 -68 18 -126 40 -59 22 -110 40 -114 40 -4 0 -17 -13 -29 -30z"/>
<path d="M7837 3822 c-24 -27 -65 -114 -76 -162 -22 -93 -5 -224 40 -312 28
-54 99 -130 160 -168 59 -39 122 -63 259 -102 124 -34 174 -62 228 -123 55
-63 75 -133 70 -244 -5 -115 -39 -180 -118 -228 -95 -58 -93 -61 -85 145 4 97
8 182 9 187 0 6 -23 11 -53 13 l-54 3 7 -191 7 -192 -23 7 c-69 22 -116 65
-150 140 -18 40 -22 68 -23 140 0 77 4 98 28 149 15 33 46 77 69 98 23 21 39
40 37 43 -3 2 -30 16 -61 29 l-56 25 -27 -35 c-14 -19 -38 -60 -53 -92 -24
-51 -27 -68 -27 -167 1 -86 6 -122 22 -167 41 -110 105 -169 203 -189 l58 -11
6 -82 c3 -44 10 -165 16 -268 6 -103 14 -197 19 -209 4 -14 12 77 20 232 16
348 11 325 73 333 142 19 232 134 253 323 19 162 -76 333 -229 413 l-48 25 4
200 3 200 -74 3 -74 3 6 -175 c3 -97 3 -178 -1 -180 -17 -10 -139 60 -188 108
-42 41 -56 63 -69 110 -32 110 -2 219 76 275 22 16 36 32 31 35 -5 3 -52 21
-105 40 -89 32 -96 33 -110 18z"/>
</g>
</svg>
