<?xml version="1.0" standalone="no"?>
<!DOCTYPE svg PUBLIC "-//W3C//DTD SVG 20010904//EN"
 "http://www.w3.org/TR/2001/REC-SVG-20010904/DTD/svg10.dtd">
<svg version="1.0" xmlns="http://www.w3.org/2000/svg"
 width="737.000000pt" height="602.000000pt" viewBox="0 0 737.000000 602.000000"
 preserveAspectRatio="xMidYMid meet">

<g transform="translate(0.000000,602.000000) scale(0.100000,-0.100000)"
fill="#000000" stroke="none">
<path d="M2545 5642 c-104 -98 -640 -598 -1190 -1111 -550 -513 -1001 -937
-1003 -941 -2 -6 309 -298 1972 -1847 l419 -390 186 199 c102 109 187 203 189
207 3 8 -159 159 -1293 1215 -330 307 -613 571 -628 586 l-29 27 449 419 c246
231 685 641 976 912 290 271 527 495 527 498 0 8 -372 404 -379 404 -3 -1 -91
-81 -196 -178z"/>
<path d="M4515 5668 c-77 -83 -161 -174 -187 -203 l-47 -52 322 -300 c1291
-1204 1622 -1514 1625 -1522 2 -5 -253 -247 -565 -538 -312 -291 -748 -697
-968 -903 -220 -205 -403 -376 -408 -379 -9 -9 368 -418 380 -412 4 2 265 243
578 535 314 293 842 786 1175 1095 333 310 613 571 623 581 18 16 -31 63
-1173 1129 -655 612 -1196 1114 -1203 1116 -7 2 -75 -64 -152 -147z"/>
<path d="M3861 4314 c-12 -15 -21 -31 -21 -36 0 -5 -21 -18 -46 -29 -40 -16
-51 -18 -79 -7 -28 10 -37 9 -59 -5 -14 -10 -33 -31 -41 -48 -14 -27 -14 -33
-2 -52 13 -19 12 -28 -6 -75 -13 -35 -25 -52 -37 -52 -9 0 -24 -8 -33 -18 -22
-24 -23 -72 -2 -72 9 0 15 9 15 23 0 17 9 28 32 38 33 15 35 18 63 86 15 37
16 47 5 74 -13 30 -12 33 15 56 19 17 31 21 38 14 16 -16 59 -13 103 5 49 20
74 42 74 66 0 14 8 18 41 18 36 0 41 -3 50 -30 17 -49 121 -86 168 -60 25 13
82 -43 63 -62 -18 -18 -15 -52 12 -112 18 -41 30 -55 48 -58 19 -2 23 -10 26
-43 3 -37 0 -41 -27 -52 -19 -7 -35 -22 -41 -40 -5 -15 -15 -36 -20 -45 -14
-24 -13 -71 2 -86 10 -10 7 -18 -14 -38 -24 -24 -28 -25 -59 -14 -31 11 -40 9
-94 -16 -44 -21 -61 -35 -63 -52 -3 -16 -12 -25 -33 -29 -38 -7 -38 -33 0 -33
32 0 61 22 61 46 0 8 21 24 47 36 40 18 52 19 80 9 38 -14 60 -5 92 35 23 30
26 55 10 82 -13 21 24 112 46 112 27 0 55 38 55 76 0 46 -13 70 -47 82 -21 7
-33 22 -46 57 -12 33 -14 52 -7 59 21 21 10 62 -24 95 -29 28 -39 32 -63 26
-42 -10 -64 -8 -105 9 -25 11 -38 23 -38 36 0 27 -38 50 -81 50 -29 0 -43 -6
-58 -26z"/>
<path d="M3833 4085 c-48 -29 -78 -73 -88 -128 -7 -34 -5 -39 11 -35 11 2 21
15 24 33 9 44 26 71 60 95 74 53 171 27 211 -57 43 -89 -5 -182 -104 -202 -20
-4 -33 -14 -35 -25 -4 -16 1 -18 34 -11 55 10 89 30 120 71 36 47 44 132 17
183 -49 93 -165 128 -250 76z"/>
<path d="M3332 3875 c-60 -26 -62 -43 -62 -435 0 -373 4 -405 48 -429 13 -7
108 -11 261 -11 239 0 240 0 268 24 l28 24 0 391 0 391 -28 27 -27 28 -228 2
c-181 2 -234 0 -260 -12z m490 -42 c17 -15 18 -41 18 -394 l0 -378 -22 -15
c-19 -13 -60 -16 -245 -16 -210 0 -224 1 -243 20 -19 19 -20 33 -20 392 0 332
2 373 17 390 15 16 36 18 246 18 200 0 233 -2 249 -17z"/>
<path d="M3390 3797 c-36 -18 -42 -72 -38 -360 3 -233 4 -250 22 -263 15 -11
61 -14 203 -14 170 0 184 1 203 20 19 19 20 33 20 295 0 287 -4 318 -44 329
-43 12 -340 6 -366 -7z m365 -317 l0 -285 -160 -3 c-88 -1 -170 0 -182 3 l-23
5 0 279 c0 153 3 281 7 285 4 3 86 5 182 4 l176 -3 0 -285z"/>
<path d="M3440 3665 l0 -55 55 0 55 0 0 55 0 55 -55 0 -55 0 0 -55z m80 0 c0
-20 -5 -25 -25 -25 -20 0 -25 5 -25 25 0 20 5 25 25 25 20 0 25 -5 25 -25z"/>
<path d="M3600 3665 l0 -56 58 3 57 3 0 50 0 50 -57 3 -58 3 0 -56z m80 -1 c0
-21 -4 -25 -22 -22 -15 2 -24 11 -26 26 -3 18 1 22 22 22 21 0 26 -5 26 -26z"/>
<path d="M3440 3505 l0 -55 55 0 55 0 0 55 0 55 -55 0 -55 0 0 -55z m78 -3 c3
-18 -1 -22 -22 -22 -19 0 -26 5 -26 18 0 39 43 43 48 4z"/>
<path d="M3640 3541 c0 -10 -9 -21 -20 -24 -11 -3 -20 -10 -20 -16 0 -6 9 -11
20 -11 13 0 20 -7 20 -20 0 -11 6 -20 14 -20 8 0 18 9 21 20 3 11 13 20 21 20
8 0 14 7 14 15 0 8 -6 15 -14 15 -8 0 -18 9 -21 20 -8 25 -35 26 -35 1z"/>
<path d="M3520 3095 c0 -12 13 -15 55 -15 42 0 55 3 55 15 0 12 -13 15 -55 15
-42 0 -55 -3 -55 -15z"/>
<path d="M4696 1021 c-84 -29 -85 -31 -18 -65 l32 -17 0 -426 c0 -413 1 -426
18 -409 17 14 23 15 53 2 135 -55 292 -14 366 97 42 63 54 110 54 208 0 161
-82 259 -214 259 -64 0 -110 -14 -154 -46 -17 -13 -34 -24 -37 -24 -3 0 -6
101 -6 225 0 124 -3 225 -7 224 -5 0 -43 -13 -87 -28z m319 -430 c79 -36 108
-96 109 -222 0 -77 -3 -93 -29 -144 -22 -44 -40 -63 -69 -79 -52 -26 -128 -25
-189 4 l-47 22 0 198 0 197 48 21 c58 26 124 27 177 3z"/>
<path d="M6060 1021 l-85 -27 48 -28 47 -28 0 -398 0 -398 -40 -16 c-68 -27
-48 -36 80 -36 66 0 120 4 120 9 0 5 -18 16 -40 25 l-40 16 -2 454 -3 454 -85
-27z"/>
<path d="M5547 962 c-24 -26 -22 -79 2 -92 69 -36 135 36 81 90 -25 25 -62 26
-83 2z"/>
<path d="M614 910 c-122 -69 -164 -194 -102 -298 24 -39 76 -76 188 -132 148
-74 180 -109 180 -198 0 -133 -143 -197 -285 -127 -52 25 -57 31 -92 106 -19
43 -39 79 -42 79 -7 0 -4 -123 5 -176 3 -26 12 -34 47 -48 120 -48 251 -45
338 7 106 64 147 176 101 280 -24 54 -66 87 -205 159 -161 85 -205 157 -155
256 31 62 73 85 147 78 82 -7 122 -39 157 -125 16 -39 33 -71 38 -71 10 0 -2
181 -13 192 -19 20 -130 48 -190 48 -55 0 -75 -5 -117 -30z"/>
<path d="M1419 915 c-92 -48 -148 -147 -133 -233 14 -82 59 -124 214 -202 149
-75 180 -109 180 -198 0 -133 -143 -197 -285 -127 -52 25 -57 31 -92 106 -19
43 -39 79 -42 79 -7 0 -4 -124 5 -176 4 -26 12 -34 47 -47 153 -58 287 -45
387 40 95 80 92 243 -6 319 -22 17 -85 55 -142 84 -166 87 -210 157 -160 258
31 63 73 85 147 78 83 -8 127 -44 158 -128 14 -38 30 -68 35 -68 12 0 1 180
-11 192 -3 4 -33 17 -65 28 -83 28 -177 26 -237 -5z"/>
<path d="M2520 921 c0 -5 21 -17 48 -27 26 -9 50 -20 55 -24 7 -6 -7 -497 -19
-646 l-6 -72 -49 -20 c-80 -34 -63 -42 87 -42 104 0 135 3 132 13 -3 6 -25 19
-49 28 l-44 17 -3 68 c-6 108 9 597 18 587 4 -4 74 -167 156 -361 140 -330
150 -352 173 -350 21 3 41 43 180 363 l156 360 7 -105 c4 -58 8 -207 10 -332
l3 -227 -47 -20 c-79 -33 -61 -41 92 -41 152 0 170 8 96 41 -34 14 -46 26 -50
47 -4 20 -19 515 -21 681 0 7 24 22 53 33 28 11 52 24 52 29 0 5 -46 9 -103 9
l-103 0 -148 -342 c-82 -189 -151 -346 -155 -350 -3 -4 -73 150 -155 343
l-149 349 -109 0 c-59 0 -108 -4 -108 -9z"/>
<path d="M3985 646 c-99 -46 -149 -135 -149 -266 0 -97 22 -161 77 -218 54
-57 102 -77 187 -77 88 0 127 16 188 77 108 106 111 310 7 426 -75 84 -204
108 -310 58z m172 -25 c75 -35 123 -137 123 -264 0 -91 -15 -139 -60 -189 -31
-35 -42 -41 -86 -45 -95 -9 -159 43 -195 159 -69 222 54 413 218 339z"/>
<path d="M5535 646 l-70 -22 48 -28 47 -28 0 -213 0 -213 -40 -16 c-68 -27
-48 -36 80 -36 66 0 120 4 120 9 0 5 -18 16 -40 25 l-40 16 0 265 c0 304 11
278 -105 241z"/>
<path d="M6655 651 c-53 -25 -109 -84 -136 -146 -31 -69 -37 -185 -14 -255 44
-134 197 -202 340 -154 44 15 125 82 125 102 0 5 -22 -2 -50 -16 -92 -45 -235
-29 -292 35 -29 32 -58 106 -58 151 l0 42 201 0 202 0 -7 43 c-17 106 -55 170
-120 201 -46 22 -140 20 -191 -3z m167 -47 c31 -30 51 -69 63 -123 l7 -31
-162 0 -162 0 7 33 c16 71 59 127 115 150 35 14 101 -1 132 -29z"/>
</g>
</svg>
