<svg id="visual" viewBox="0 0 3000 1500" width="3000" height="1500" xmlns="http://www.w3.org/2000/svg" xmlns:xlink="http://www.w3.org/1999/xlink" version="1.1"><rect x="0" y="0" width="3000" height="1500" fill="#f1f5f9"></rect><path d="M0 1151L300 1120L600 1151L900 1094L1200 1087L1500 1091L1800 1084L2100 1137L2400 1080L2700 1130L3000 1137L3000 1501L2700 1501L2400 1501L2100 1501L1800 1501L1500 1501L1200 1501L900 1501L600 1501L300 1501L0 1501Z" fill="#3795ff"></path><path d="M0 1176L300 1176L600 1150L900 1203L1200 1206L1500 1155L1800 1166L2100 1181L2400 1198L2700 1194L3000 1207L3000 1501L2700 1501L2400 1501L2100 1501L1800 1501L1500 1501L1200 1501L900 1501L600 1501L300 1501L0 1501Z" fill="#388eef"></path><path d="M0 1206L300 1247L600 1279L900 1227L1200 1218L1500 1266L1800 1277L2100 1276L2400 1229L2700 1273L3000 1264L3000 1501L2700 1501L2400 1501L2100 1501L1800 1501L1500 1501L1200 1501L900 1501L600 1501L300 1501L0 1501Z" fill="#3987de"></path><path d="M0 1309L300 1270L600 1345L900 1278L1200 1313L1500 1339L1800 1320L2100 1339L2400 1336L2700 1288L3000 1302L3000 1501L2700 1501L2400 1501L2100 1501L1800 1501L1500 1501L1200 1501L900 1501L600 1501L300 1501L0 1501Z" fill="#3b80ce"></path><path d="M0 1334L300 1341L600 1345L900 1343L1200 1391L1500 1395L1800 1348L2100 1345L2400 1362L2700 1334L3000 1401L3000 1501L2700 1501L2400 1501L2100 1501L1800 1501L1500 1501L1200 1501L900 1501L600 1501L300 1501L0 1501Z" fill="#3d79be"></path><path d="M0 1441L300 1448L600 1464L900 1431L1200 1402L1500 1473L1800 1425L2100 1404L2400 1415L2700 1463L3000 1464L3000 1501L2700 1501L2400 1501L2100 1501L1800 1501L1500 1501L1200 1501L900 1501L600 1501L300 1501L0 1501Z" fill="#3e72af"></path></svg>